<?xml version="1.0" encoding="UTF-8"?>
<svg id="Layer_1" data-name="Layer 1" xmlns="http://www.w3.org/2000/svg" viewBox="0 0 89.72 26.61" width="134.58" height="39.92">
  <rect y="4.76" width="5.59" height="21.5"/>
  <path d="M17.52,26.61c-6.11,0-11.09-4.94-11.09-11.09s4.99-11.09,11.09-11.09c2.19,0,3.91.56,5.42,1.63V.05l5.41-.05.22,15.51c0,6.15-4.94,11.09-11.05,11.09ZM12.02,15.51c0,3.18,2.28,5.63,5.46,5.63s5.55-2.45,5.55-5.63-2.36-5.63-5.55-5.63-5.46,2.45-5.46,5.63Z"/>
  <path d="M29.56,14.96c0-7.1,3.96-10.28,9.2-10.28h.26v5.46h-.21c-2.45,0-3.66,1.46-3.66,4.82v11.31h-5.59v-11.31Z"/>
  <rect x="40" y="4.72" width="5.59" height="21.5"/>
  <path d="M46.35,19.25h5.33c0,1.38,1.72,2.32,4.04,2.32s3.53-.95,3.53-2.06c0-3.57-12.68-.13-12.68-8.64,0-3.78,3.91-6.49,8.9-6.49s8.77,2.49,8.77,7.05h-5.33c0-1.25-1.68-2.11-3.53-2.11s-3.22.86-3.22,1.98c0,3.1,12.6.22,12.68,8.34.04,4.82-4,6.92-9.25,6.92-4.82,0-9.24-2.49-9.24-7.31Z"/>
  <path d="M65.12,19.25h5.33c0,1.38,1.72,2.32,4.04,2.32s3.53-.95,3.53-2.06c0-3.57-12.68-.13-12.68-8.64,0-3.78,3.91-6.49,8.9-6.49s8.77,2.49,8.77,7.05h-5.33c0-1.25-1.68-2.11-3.53-2.11s-3.22.86-3.22,1.98c0,3.1,12.6.22,12.68,8.34.04,4.82-4,6.92-9.25,6.92-4.82,0-9.24-2.49-9.24-7.31Z"/>
  <rect x="84.13" y="4.72" width="5.59" height="21.5"/>
</svg>
